<?xml version="1.0" encoding="UTF-8" standalone="no"?>
<svg
   xmlns:dc="http://purl.org/dc/elements/1.1/"
   xmlns:cc="http://creativecommons.org/ns#"
   xmlns:rdf="http://www.w3.org/1999/02/22-rdf-syntax-ns#"
   xmlns:svg="http://www.w3.org/2000/svg"
   xmlns="http://www.w3.org/2000/svg"
   version="1.1"
   viewBox="0 0 34.961 34.963">
  <defs
     id="defs3725" />
  <metadata
     id="metadata3728">
    <rdf:RDF>
      <cc:Work
         rdf:about="">
        <dc:format>image/svg+xml</dc:format>
        <dc:type
           rdf:resource="http://purl.org/dc/dcmitype/StillImage" />
        <dc:title></dc:title>
      </cc:Work>
    </rdf:RDF>
  </metadata>
  <g
     style="fill:#ffffff"
     transform="translate(-43.22202,2.32806)"
     id="layer1-4">
    <path
       style="fill:#ffffff;stroke-width:0.26458332"
       d="m 60.70331,32.63494 c 11.539344,-2.928601 12.836352,-4.906649 17.479699,-17.481821 0,-9.6546399 -7.82585,-17.4810199 -17.479969,-17.4810199 -9.65597,0 -17.48102,7.82638 -17.48102,17.4810199 0,9.654651 7.82505,17.481821 17.48076,17.481821 z"
       id="path4-5" />
  </g>
  <g
     id="layer1">
    <path
       style="fill:#d20033;stroke-width:0.26458332"
       d="m 17.479699,7.7926798e-7 c -1.30175,0 -2.56804,0.14685000073202 -3.78804,0.41672000073202 V 17.494251 c 0,2.09286 1.70551,3.79942 3.7981,3.79942 2.09232,0 3.79835,-1.70656 3.79835,-3.79942 0,-2.0066 -1.57083,-3.65812 -3.54541,-3.78936 v -3.04271 c 3.6486,0.13415 6.58415,3.15119 6.58415,6.83155 0,3.7666 -3.07128,6.83842 -6.83683,6.83842 -3.76714,0 -6.83736,-3.07182 -6.83736,-6.83816 V 1.3845708 A 16.960321,16.960321 0 0 0 9.3853,1.9878208 V 17.494251 c 5.3e-4,4.46432 3.642259,8.10419 8.104719,8.10419 4.46352,0 8.10419,-3.63987 8.10419,-8.10419 0,-4.37753 -3.50361,-7.9634204 -7.85178,-8.0988902 v -3.04006 c 6.02139,0.13599 10.8892,5.0866102 10.8892,11.1389502 0,6.13834 -5.00513,11.1432 -11.14161,11.1432 -6.1378,0 -11.1437192,-5.00513 -11.1437192,-11.14346 V 4.0044708 C 2.47015,7.2106908 0,12.057861 0,17.481821 c 0,9.65464 7.8258499,17.48102 17.479969,17.48102 9.65597,0 17.48102,-7.82638 17.48102,-17.48102 C 34.960989,7.8271708 27.135939,7.7926797e-7 17.480229,7.7926797e-7 Z"
       id="path4" />
  </g>
</svg>
